<mxfile host="app.diagrams.net" modified="2023-12-26T06:33:49.088Z" agent="Mozilla/5.0 (X11; Linux x86_64) AppleWebKit/537.36 (KHTML, like Gecko) Chrome/120.0.0.0 Safari/537.36" etag="KcXveI5Ld_W2JlQARevi" version="22.1.11" type="github">
  <diagram name="第 1 页" id="hDoahNwqy_S9Exu6cREB">
    <mxGraphModel dx="2004" dy="1119" grid="1" gridSize="10" guides="1" tooltips="1" connect="1" arrows="1" fold="1" page="1" pageScale="1" pageWidth="827" pageHeight="1169" math="0" shadow="0">
      <root>
        <mxCell id="0" />
        <mxCell id="1" parent="0" />
        <mxCell id="ioGgBvObvTV-smioKkR5-3" value="Distribution layer" style="rounded=0;whiteSpace=wrap;html=1;fillColor=#dae8fc;strokeColor=#6c8ebf;" vertex="1" parent="1">
          <mxGeometry x="210" y="355" width="120" height="20" as="geometry" />
        </mxCell>
        <mxCell id="ioGgBvObvTV-smioKkR5-12" value="" style="shape=cube;whiteSpace=wrap;html=1;boundedLbl=1;backgroundOutline=1;darkOpacity=0.05;darkOpacity2=0.1;size=20;rotation=90;" vertex="1" parent="1">
          <mxGeometry x="130" y="340" width="49.45" height="50" as="geometry" />
        </mxCell>
        <mxCell id="ioGgBvObvTV-smioKkR5-13" value="" style="shape=cube;whiteSpace=wrap;html=1;boundedLbl=1;backgroundOutline=1;darkOpacity=0.05;darkOpacity2=0.1;size=20;rotation=90;" vertex="1" parent="1">
          <mxGeometry x="130" y="440" width="49.45" height="50" as="geometry" />
        </mxCell>
        <mxCell id="ioGgBvObvTV-smioKkR5-15" value="Distribution layer" style="rounded=0;whiteSpace=wrap;html=1;fillColor=#dae8fc;strokeColor=#6c8ebf;" vertex="1" parent="1">
          <mxGeometry x="210" y="455" width="120" height="20" as="geometry" />
        </mxCell>
        <mxCell id="ioGgBvObvTV-smioKkR5-16" value="256,&amp;nbsp;" style="text;html=1;align=center;verticalAlign=middle;resizable=0;points=[];autosize=1;strokeColor=none;fillColor=none;" vertex="1" parent="1">
          <mxGeometry x="115" y="388" width="50" height="30" as="geometry" />
        </mxCell>
      </root>
    </mxGraphModel>
  </diagram>
</mxfile>
